#!OML:ASF I:\Actors\actors\Patient Classification 2\Patient 1\Session 1\actor1.ASF
:FULLY-SPECIFIED
:DEGREES
106
root -0.654363 18.6982 5.76103 2.23915 -2.69614 -1.17562
lowerback 0.21874 0.591549 -0.325548
upperback -3.08153 0.787445 0.169805
thorax -3.29309 0.404169 0.332478
lowerneck -9.76798 -2.26272 -3.94615
upperneck 28.3836 -3.86022 5.00922
head 10.9099 -1.6102 2.02339
rclavicle 5.82688e-015 -2.38542e-015
rhumerus -50.2 -5.89751 -82.2974
rradius 41.4078
rwrist 19.8743
rhand -11.3384 -24.64
rfingers 7.12502
rthumb 14.6945 -54.0993
lclavicle 5.82688e-015 -2.38542e-015
lhumerus -46.3816 9.28639 83.2671
lradius 38.2328
lwrist -9.13305
lhand -9.2023 -30.5555
lfingers 7.12502
lthumb 16.7517 -1.25824
rfemur 0 0 0
rtibia 0
rfoot 0 0
rtoes 0
lfemur -4.60904 -9.29843 -13.6186
ltibia 20.507
lfoot -24.5108 16.2578
ltoes -54.518
107
root -0.65484 18.6979 5.76196 2.2539 -2.71834 -1.18
lowerback 0.205904 0.590411 -0.352925
upperback -3.09776 0.785869 0.186685
thorax -3.30325 0.404439 0.365235
lowerneck -9.75512 -2.24969 -3.94085
upperneck 28.4038 -3.83847 4.98979
head 10.9133 -1.60207 2.01847
rclavicle -1.2598e-014 -1.98785e-016
rhumerus -50.1746 -5.99622 -82.1431
rradius 41.3037
rwrist 20.0153
rhand -11.3773 -24.5339
rfingers 7.12502
rthumb 14.657 -53.9959
lclavicle -1.2598e-014 -1.98785e-016
lhumerus -46.4204 9.30229 83.2864
lradius 38.2382
lwrist -9.12975
lhand -9.18521 -30.5249
lfingers 7.12502
lthumb 16.7681 -1.22897
rfemur 0 0 0
rtibia 0
rfoot 0 0
rtoes 0
lfemur -4.62107 -9.30786 -13.6143
ltibia 20.5159
lfoot -24.5686 16.3468
ltoes -54.6827
108
root -0.655618 18.6986 5.7641 2.2752 -2.73641 -1.15021
lowerback 0.166126 0.581714 -0.435713
upperback -3.10963 0.772994 0.196867
thorax -3.29423 0.400472 0.422819
lowerneck -9.7606 -2.25466 -3.97058
upperneck 28.4431 -3.85046 5.02117
head 10.9312 -1.60689 2.03408
rclavicle 6.75868e-015 1.98785e-016
rhumerus -50.1379 -6.14791 -81.9506
rradius 41.1933
rwrist 20.2479
rhand -11.3918 -24.4695
rfingers 7.12502
rthumb 14.643 -53.9325
lclavicle 6.75868e-015 1.98785e-016
lhumerus -46.4509 9.33353 83.3134
lradius 38.2531
lwrist -9.11509
lhand -9.11535 -30.4527
lfingers 7.12502
lthumb 16.8354 -1.1625
rfemur 0 0 0
rtibia 0
rfoot 0 0
rtoes 0
lfemur -4.63804 -9.3208 -13.6505
ltibia 20.5184
lfoot -24.568 16.4406
ltoes -54.8316
109
root -0.658109 18.6985 5.76755 2.29082 -2.72909 -1.12881
lowerback 0.120546 0.548258 -0.547612
upperback -3.12133 0.726666 0.210172
thorax -3.28175 0.380659 0.500974
lowerneck -9.74125 -2.25402 -3.94199
upperneck 28.4623 -3.86158 5.03295
head 10.9348 -1.60806 2.03241
rclavicle -6.4605e-015 -4.37326e-015
rhumerus -50.1021 -6.14943 -81.9047
rradius 41.1964
rwrist 20.3545
rhand -11.4655 -24.2253
rfingers 7.12502
rthumb 14.572 -53.6934
lclavicle -6.4605e-015 -4.37326e-015
lhumerus -46.4965 9.34036 83.3282
lradius 38.2733
lwrist -9.10937
lhand -9.06429 -30.3879
lfingers 7.12502
lthumb 16.8845 -1.10191
rfemur 0 0 0
rtibia 0
rfoot 0 0
rtoes 0
lfemur -4.64515 -9.31271 -13.6705
ltibia 20.5148
lfoot -24.5182 16.4582
ltoes -54.8553
110
root -0.661695 18.6977 5.77195 2.30954 -2.70621 -1.14647
lowerback 0.064308 0.507228 -0.629219
upperback -3.14104 0.671013 0.225892
thorax -3.27085 0.355414 0.564934
lowerneck -9.6912 -2.25351 -3.87242
upperneck 28.4908 -3.88194 5.03997
head 10.9354 -1.61013 2.0211
rclavicle 1.23246e-014 3.18055e-015
rhumerus -50.083 -6.04064 -81.982
rradius 41.3296
rwrist 20.3273
rhand -11.4369 -23.8466
rfingers 7.12502
rthumb 14.5996 -53.3128
lclavicle 1.23246e-014 3.18055e-015
lhumerus -46.5547 9.25862 83.3615
lradius 38.3091
lwrist -9.09291
lhand -9.05749 -30.3522
lfingers 7.12502
lthumb 16.8911 -1.06676
rfemur 0 0 0
rtibia 0
rfoot 0 0
rtoes 0
lfemur -4.65306 -9.30287 -13.6356
ltibia 20.5076
lfoot -24.4963 16.4004
ltoes -54.7779
111
root -0.663858 18.6978 5.77517 2.32842 -2.70529 -1.16068
lowerback 0.0258183 0.488172 -0.682407
upperback -3.15941 0.644929 0.231906
thorax -3.26845 0.344013 0.601927
lowerneck -9.64206 -2.27126 -3.8919
upperneck 28.5 -3.93388 5.13598
head 10.9344 -1.62579 2.05358
rclavicle 1.58779e-014 -1.59028e-015
rhumerus -50.0643 -6.05425 -81.9728
rradius 41.3974
rwrist 20.3209
rhand -11.3455 -23.8921
rfingers 7.12502
rthumb 14.6876 -53.3518
lclavicle 1.58779e-014 -1.59028e-015
lhumerus -46.591 9.14244 83.4252
lradius 38.3602
lwrist -9.02205
lhand -8.9198 -30.278
lfingers 7.12502
lthumb 17.0236 -1.00393
rfemur 0 0 0
rtibia 0
rfoot 0 0
rtoes 0
lfemur -4.66098 -9.3689 -13.6187
ltibia 20.5058
lfoot -24.5118 16.4494
ltoes -54.8141
112
root -0.665329 18.6984 5.7776 2.35393 -2.72841 -1.18647
lowerback -0.0130772 0.489378 -0.702094
upperback -3.16482 0.646539 0.236629
thorax -3.25241 0.345397 0.618086
lowerneck -9.61214 -2.30702 -3.97471
upperneck 28.4524 -4.01171 5.29162
head 10.9199 -1.6531 2.11465
rclavicle -2.6339e-015 -7.15625e-015
rhumerus -50.0543 -6.16298 -81.9001
rradius 41.4147
rwrist 20.3001
rhand -11.2899 -24.1311
rfingers 7.12502
rthumb 14.7412 -53.587
lclavicle -2.6339e-015 -7.15625e-015
lhumerus -46.6042 9.04052 83.4933
lradius 38.3795
lwrist -8.92403
lhand -8.77853 -30.283
lfingers 7.12502
lthumb 17.1596 -1.02072
rfemur 0 0 0
rtibia 0
rfoot 0 0
rtoes 0
lfemur -4.66575 -9.50151 -13.6052
ltibia 20.5061
lfoot -24.5721 16.5943
ltoes -54.8337
113
root -0.666418 18.6984 5.78125 2.36276 -2.77595 -1.23942
lowerback -0.047037 0.500018 -0.670509
upperback -3.168 0.661474 0.235574
thorax -3.23636 0.351912 0.599185
lowerneck -9.5756 -2.34772 -4.00815
upperneck 28.4045 -4.09211 5.39416
head 10.902 -1.6827 2.14746
rclavicle 5.08143e-015 -6.36111e-015
rhumerus -50.0901 -6.24266 -81.8685
rradius 41.47
rwrist 20.2421
rhand -11.256 -24.1368
rfingers 7.12502
rthumb 14.7739 -53.5902
lclavicle 5.08143e-015 -6.36111e-015
lhumerus -46.2397 9.51303 83.2306
lradius 37.2695
lwrist -9.44773
lhand -9.00905 -30.9818
lfingers 7.12502
lthumb 16.9377 -1.70031
rfemur 0 0 0
rtibia 0
rfoot 0 0
rtoes 0
lfemur -4.63327 -9.67269 -13.5759
ltibia 20.4989
lfoot -24.673 16.7557
ltoes -54.7578
114
root -0.666791 18.6979 5.78507 2.3233 -2.84506 -1.23644
lowerback -0.0264257 0.506772 -0.678483
upperback -3.17176 0.669562 0.212777
thorax -3.25183 0.355868 0.579787
lowerneck -9.51846 -2.36794 -3.98654
upperneck 28.3667 -4.13079 5.40973
head 10.8784 -1.69783 2.14444
rclavicle 1.67973e-014 -2.38542e-015
rhumerus -50.1365 -6.31636 -81.8087
rradius 41.4133
rwrist 20.3
rhand -11.3938 -24.2946
rfingers 7.12502
rthumb 14.6411 -53.7578
lclavicle 1.67973e-014 -2.38542e-015
lhumerus -46.6751 8.91464 83.5128
lradius 38.6191
lwrist -8.85605
lhand -8.63801 -30.0822
lfingers 7.12502
lthumb 17.2949 -0.831697
rfemur 0 0 0
rtibia 0
rfoot 0 0
rtoes 0
lfemur -4.54814 -9.81138 -13.6217
ltibia 20.4949
lfoot -24.7689 16.9172
ltoes -54.7461
115
root -0.667839 18.6975 5.78736 2.27364 -2.90128 -1.17806
lowerback 0.0348837 0.510787 -0.728646
upperback -3.18275 0.672267 0.166772
thorax -3.29791 0.358075 0.559888
lowerneck -9.46945 -2.37766 -3.97161
upperneck 28.3221 -4.15161 5.42365
head 10.8529 -1.70559 2.14404
rclavicle 3.83903e-015 -1.98785e-015
rhumerus -50.2382 -6.42597 -81.7166
rradius 41.3185
rwrist 20.4226
rhand -11.58 -24.617
rfingers 7.12502
rthumb 14.4617 -54.093
lclavicle 3.83903e-015 -1.98785e-015
lhumerus -46.7227 8.62841 83.6225
lradius 38.802
lwrist -8.55999
lhand -8.50939 -29.7608
lfingers 7.12502
lthumb 17.4187 -0.521253
rfemur 0 0 0
rtibia 0
rfoot 0 0
rtoes 0
lfemur -4.46884 -9.91504 -13.7192
ltibia 20.4934
lfoot -24.8606 17.0531
ltoes -54.659
116
root -0.669525 18.6979 5.78831 2.27207 -2.95433 -1.18749
lowerback 0.0894421 0.519729 -0.696488
upperback -3.2219 0.68315 0.125713
thorax -3.36846 0.362287 0.498606
lowerneck -9.42503 -2.38713 -3.95372
upperneck 28.2894 -4.18099 5.46509
head 10.8339 -1.71363 2.15226
rclavicle -1.05604e-014 -8.74653e-015
rhumerus -50.4328 -6.46166 -81.7387
rradius 41.3913
rwrist 20.4134
rhand -11.568 -24.7563
rfingers 7.12502
rthumb 14.4732 -54.2315
lclavicle -1.05604e-014 -8.74653e-015
lhumerus -46.03 9.63585 83.0139
lradius 36.6548
lwrist -9.62588
lhand -8.89996 -30.9755
lfingers 7.12502
lthumb 17.0427 -1.70311
rfemur 0 0 0
rtibia 0
rfoot 0 0
rtoes 0
lfemur -4.44695 -10.0266 -13.7216
ltibia 20.4865
lfoot -24.9237 17.1895
ltoes -54.556
117
root -0.671468 18.6986 5.78884 2.29883 -3.01626 -1.22682
lowerback 0.112177 0.533606 -0.662046
upperback -3.25986 0.701677 0.111452
thorax -3.42022 0.370567 0.463638
lowerneck -9.3571 -2.39113 -3.93536
upperneck 28.2082 -4.19238 5.47871
head 10.7903 -1.7173 2.15195
rclavicle -9.70318e-015 -1.98785e-016
rhumerus -50.5591 -6.39496 -81.8198
rradius 41.4784
rwrist 20.3129
rhand -11.4396 -24.8302
rfingers 7.12502
rthumb 14.597 -54.2965
lclavicle -9.70318e-015 -1.98785e-016
lhumerus -45.786 10.0341 82.7519
lradius 35.9243
lwrist -10.0643
lhand -9.07174 -31.446
lfingers 7.12502
lthumb 16.8774 -2.15936
rfemur 0 0 0
rtibia 0
rfoot 0 0
rtoes 0
lfemur -4.46226 -10.1115 -13.6775
ltibia 20.4871
lfoot -24.9685 17.2969
ltoes -54.5523
118
root -0.67311 18.698 5.79024 2.28871 -3.0649 -1.23081
lowerback 0.131508 0.544703 -0.674026
upperback -3.26414 0.715883 0.104061
thorax -3.43584 0.377931 0.46208
lowerneck -9.30856 -2.39232 -3.92619
upperneck 28.0854 -4.18163 5.44659
head 10.7328 -1.71695 2.13856
rclavicle -1.43498e-014 6.16232e-015
rhumerus -50.5911 -6.30334 -81.8853
rradius 41.4904
rwrist 20.2216
rhand -11.3761 -24.9179
rfingers 7.12502
rthumb 14.6582 -54.3797
lclavicle -1.43498e-014 6.16232e-015
lhumerus -45.7301 9.97924 82.7715
lradius 35.91
lwrist -10.0379
lhand -9.17201 -31.4603
lfingers 7.12502
lthumb 16.7809 -2.16551
rfemur 0 0 0
rtibia 0
rfoot 0 0
rtoes 0
lfemur -4.44751 -10.149 -13.6789
ltibia 20.5069
lfoot -24.9962 17.3869
ltoes -54.5457
119
root -0.675096 18.698 5.79164 2.28566 -3.11619 -1.26261
lowerback 0.144296 0.556413 -0.652428
upperback -3.26382 0.731756 0.100423
thorax -3.4426 0.385176 0.445612
lowerneck -9.34482 -2.39492 -3.90037
upperneck 28.0304 -4.16858 5.38254
head 10.7166 -1.71546 2.11128
rclavicle 5.75233e-015 2.18663e-015
rhumerus -50.6104 -6.22331 -81.9633
rradius 41.4951
rwrist 20.1884
rhand -11.4474 -25.0248
rfingers 7.12502
rthumb 14.5895 -54.4917
lclavicle 5.75233e-015 2.18663e-015
lhumerus -45.6194 9.9151 82.7977
lradius 35.8516
lwrist -9.97304
lhand -9.20897 -31.4545
lfingers 7.12502
lthumb 16.7453 -2.15671
rfemur 0 0 0
rtibia 0
rfoot 0 0
rtoes 0
lfemur -4.43838 -10.129 -13.6447
ltibia 20.5274
lfoot -24.9611 17.4838
ltoes -54.5556
120
root -0.677441 18.699 5.79294 2.30914 -3.19497 -1.3022
lowerback 0.118976 0.582638 -0.626895
upperback -3.25649 0.767444 0.0997907
thorax -3.42081 0.402148 0.429861
lowerneck -9.42169 -2.3891 -3.90118
upperneck 28.0091 -4.15332 5.3713
head 10.7228 -1.70867 2.10822
rclavicle 1.61388e-014 7.95139e-015
rhumerus -50.6038 -6.19105 -82.0162
rradius 41.4886
rwrist 20.2262
rhand -11.553 -25.1391
rfingers 7.12502
rthumb 14.4877 -54.6133
lclavicle 1.61388e-014 7.95139e-015
lhumerus -45.6849 9.57269 82.9862
lradius 36.4361
lwrist -9.58961
lhand -9.01595 -31.1019
lfingers 7.12502
lthumb 16.9311 -1.81991
rfemur 0 0 0
rtibia 0
rfoot 0 0
rtoes 0
lfemur -4.44794 -10.1075 -13.5978
ltibia 20.5394
lfoot -24.9524 17.5734
ltoes -54.5941
121
root -0.678745 18.699 5.79602 2.29404 -3.27604 -1.32443
lowerback 0.0763906 0.606688 -0.602467
upperback -3.2257 0.799997 0.0871248
thorax -3.36475 0.417262 0.402855
lowerneck -9.44779 -2.36295 -3.92457
upperneck 27.9501 -4.11959 5.41712
head 10.7054 -1.69037 2.13193
rclavicle 4.98204e-015 -2.18663e-015
rhumerus -50.5813 -6.19398 -82.0607
rradius 41.4599
rwrist 20.2749
rhand -11.5509 -25.0988
rfingers 7.12502
rthumb 14.4897 -54.5729
lclavicle 4.98204e-015 -2.18663e-015
lhumerus -46.2412 8.65787 83.4578
lradius 38.4331
lwrist -8.63705
lhand -8.56643 -29.9878
lfingers 7.12502
lthumb 17.3638 -0.743404
rfemur 0 0 0
rtibia 0
rfoot 0 0
rtoes 0
lfemur -4.40022 -10.1745 -13.5945
ltibia 20.5546
lfoot -25.073 17.6608
ltoes -54.5061
